<svg width="116" height="116" viewBox="0 0 116 116" fill="none" xmlns="http://www.w3.org/2000/svg">
<g clip-path="url(#clip0_22539_1834)">
<path d="M115.5 58.4753C115.5 81.9286 101.47 102.104 81.3516 111.061L62.2483 91.8128C61.4508 91.0087 61.0033 89.9226 61.0033 88.7907V80.5672C61.0033 79.382 61.9639 78.4222 63.1483 78.4222H81.5926L86.6393 80.6213C87.5508 81.018 88.618 80.6533 89.0959 79.7795L100.044 59.8326C100.392 59.1998 100.574 58.49 100.574 57.7687V53.0763C100.574 52.5402 100.354 52.0255 99.968 51.655L77.8442 29.5852C77.6623 29.4081 77.4311 29.2795 77.1795 29.2204L55.641 24.1009C54.968 23.9411 54.3434 23.6206 53.8205 23.1665L52.4598 21.9854L45.5516 16.0004C45.3131 15.7938 44.9434 15.8045 44.709 16.0168C42.0418 18.4331 40.5959 20.4215 39.8983 23.0583C38.7344 27.1771 39.7319 30.8294 41.3737 33.0441C41.4754 33.1834 41.5778 33.3179 41.6844 33.4408L49.9229 41.6946C50.3254 42.0914 50.5451 42.6331 50.5451 43.202L50.5508 52.7181C50.5508 53.3369 49.8032 53.6467 49.3655 53.2099L35.9377 39.7824C35.5754 39.4201 34.9877 39.4193 34.6246 39.7816L29.0975 45.2913C28.7336 45.6544 28.7336 46.2429 29.0967 46.6068L48.1811 65.6906C50.3787 67.8881 51.6139 70.8691 51.6139 73.9772V92.9357C51.6139 94.2061 52.1188 95.4249 53.0172 96.3233L71.1795 114.491C67.7467 115.295 64.1967 115.794 60.5549 115.95L46.218 101.613C44.2196 99.615 43.0967 96.9044 43.0967 94.0782V74.46C43.0967 73.3297 42.6475 72.2461 41.8491 71.4478L23.0459 52.6451C22.6836 52.2828 22.095 52.282 21.7327 52.6451L16.1672 58.1974C15.8032 58.5605 15.8032 59.149 16.1672 59.5121L32.3557 75.7001C32.7524 76.1026 32.9778 76.6444 32.9778 77.2075V86.6998C32.9778 87.317 32.2319 87.6268 31.795 87.1899L10.3778 65.7939C10.0418 65.4587 9.46799 65.6955 9.46716 66.1701L9.44094 77.5353C9.4393 78.2484 9.72208 78.932 10.2262 79.4369L45.4024 114.617C19.0164 108.718 -0.526282 84.6736 0.541751 56.2557C1.63601 27.15 24.859 3.09832 53.9172 1.091C87.5197 -1.23024 115.5 25.3525 115.5 58.4745" fill="black"/>
</g>
<defs>
<clipPath id="clip0_22539_1834">
<rect x="0.5" y="0.949707" width="115" height="115" rx="57.5" fill="white"/>
</clipPath>
</defs>
</svg>
